HIERARCHY
ROOT Hips
{
 OFFSET 0.000000 0.000000 0.000000
 CHANNELS 6 Xposition Yposition Zposition Yrotation Xrotation Zrotation
 JOINT Chest
 {
  OFFSET 0.000000 9.585900 0.002600
  CHANNELS 3 Yrotation Xrotation Zrotation
  JOINT Chest2
  {
   OFFSET 0.000000 9.601200 -0.005300
   CHANNELS 3 Yrotation Xrotation Zrotation
   JOINT Chest3
   {
    OFFSET 0.000000 9.561800 0.000000
    CHANNELS 3 Yrotation Xrotation Zrotation
    JOINT Chest4
    {
     OFFSET 0.000000 9.552100 0.000000
     CHANNELS 3 Yrotation Xrotation Zrotation
     JOINT Neck
     {
      OFFSET 0.000000 14.453000 0.000000
      CHANNELS 3 Yrotation Xrotation Zrotation
      JOINT Head
      {
       OFFSET 0.000000 8.936500 -0.011300
       CHANNELS 3 Yrotation Xrotation Zrotation
       End Site
       {
        OFFSET 0.000000 17.073600 -0.006000
       }
      }
     }
     JOINT RightCollar
     {
      OFFSET -2.921100 9.558500 0.000000
      CHANNELS 3 Yrotation Xrotation Zrotation
      JOINT RightShoulder
      {
       OFFSET -13.519700 0.000000 0.000000
       CHANNELS 3 Yrotation Xrotation Zrotation
       JOINT RightElbow
       {
        OFFSET 0.000000 -29.696600 0.000000
        CHANNELS 3 Yrotation Xrotation Zrotation
        JOINT RightWrist
        {
         OFFSET 0.000000 -24.004700 0.000000
         CHANNELS 3 Yrotation Xrotation Zrotation
         End Site
         {
          OFFSET 0.000000 -17.728500 0.000000
         }
        }
       }
      }
     }
     JOINT LeftCollar
     {
      OFFSET 2.921100 9.558500 0.000000
      CHANNELS 3 Yrotation Xrotation Zrotation
      JOINT LeftShoulder
      {
       OFFSET 13.519700 0.000000 0.000000
       CHANNELS 3 Yrotation Xrotation Zrotation
       JOINT LeftElbow
       {
        OFFSET 0.000000 -29.696600 0.000000
        CHANNELS 3 Yrotation Xrotation Zrotation
        JOINT LeftWrist
        {
         OFFSET 0.000000 -24.004700 0.000000
         CHANNELS 3 Yrotation Xrotation Zrotation
         End Site
         {
          OFFSET 0.000000 -17.728500 0.000000
         }
        }
       }
      }
     }
    }
   }
  }
 }
 JOINT RightHip
 {
  OFFSET -7.771700 -0.012900 -0.001300
  CHANNELS 3 Yrotation Xrotation Zrotation
  JOINT RightKnee
  {
   OFFSET 0.000000 -40.869800 0.001200
   CHANNELS 3 Yrotation Xrotation Zrotation
   JOINT RightAnkle
   {
    OFFSET 0.000000 -39.717900 0.002100
    CHANNELS 3 Yrotation Xrotation Zrotation
    JOINT RightToe
    {
     OFFSET 0.000000 -4.965400 11.033500
     CHANNELS 3 Yrotation Xrotation Zrotation
     End Site
     {
      OFFSET 0.000000 -1.423100 5.872300
     }
    }
   }
  }
 }
 JOINT LeftHip
 {
  OFFSET 7.771700 -0.012900 -0.001300
  CHANNELS 3 Yrotation Xrotation Zrotation
  JOINT LeftKnee
  {
   OFFSET 0.000000 -40.869800 0.001200
   CHANNELS 3 Yrotation Xrotation Zrotation
   JOINT LeftAnkle
   {
    OFFSET 0.000000 -39.717900 0.002100
    CHANNELS 3 Yrotation Xrotation Zrotation
    JOINT LeftToe
    {
     OFFSET 0.000000 -4.965400 11.033500
     CHANNELS 3 Yrotation Xrotation Zrotation
     End Site
     {
      OFFSET 0.000000 -1.423100 5.872300
     }
    }
   }
  }
 }
}
MOTION
Frames: 9
Frame Time: 0.008333
0.000000 85.388000 0.000000 0.000000 -5.767877 0.000000 0.000000 11.653817 0.000000 0.000000 -5.885947 0.000000 0.000000 -0.000000 0.000000 0.000000 -0.000000 0.000000 0.000000 12.528835 0.000000 0.000000 0.711642 0.000000 0.000000 -0.000000 0.000000 0.000000 0.000000 -90.000000 0.000000 -2.309062 0.000000 0.000000 2.309062 0.000000 0.000000 -0.000000 0.000000 0.000000 -0.000000 90.000000 0.000000 -2.309062 0.000000 0.000000 2.309062 0.000000 0.000000 8.520406 0.000000 0.000000 1.905762 0.000000 -0.000000 -4.658285 0.000000 0.000000 -0.000000 0.000000 0.000000 8.520406 0.000000 0.000000 1.905762 0.000000 -0.000000 -4.658285 0.000000 0.000000 -0.000000 0.000000
-1.483143 50.081767 35.120982 171.899818 -35.881084 -6.061416 7.921338 24.090931 7.873779 1.047786 3.957956 0.851856 1.683568 6.342750 1.419659 6.102719 19.921852 5.295650 -2.611047 20.236555 1.722622 -5.263501 1.908302 3.909096 1.919788 -0.085854 -5.793838 17.246814 -14.862821 -6.039671 -123.643944 -41.641120 137.478130 -16.720929 -11.274586 17.723019 -16.503423 0.071433 1.400455 -6.316436 -25.209310 1.900585 114.291051 -49.040107 -144.985817 41.331120 -10.210858 -7.479827 1.300427 -45.835505 9.527626 -64.950109 81.970836 -53.074939 -0.342864 -6.041814 -4.955449 -0.223480 0.993989 -0.123133 -11.629735 -49.108349 17.823122 -132.354608 87.978779 -139.247949 0.552449 -8.559868 4.003136 -0.041475 -0.179515 -0.011133
-1.480558 50.079741 35.117371 171.886479 -35.863370 -6.051917 7.904504 24.124565 7.892244 1.067168 3.925256 0.827742 1.656597 6.398847 1.457343 6.096442 19.903359 5.269365 -2.622615 20.187043 1.709334 -5.329295 1.719364 3.912495 1.954689 -0.075148 -5.771825 17.315678 -14.884428 -5.902122 -123.996108 -41.986931 137.451838 -16.675943 -11.402892 16.995424 -16.406715 -0.017079 1.444208 -6.531653 -25.213367 1.757663 115.113543 -49.658518 -145.109233 40.899150 -10.999286 -5.186734 1.261283 -45.855397 9.560128 -64.989855 81.973633 -53.146304 -0.337099 -6.031063 -4.953307 -0.229988 0.990277 -0.120706 -11.627155 -49.127336 17.829614 -132.529142 87.975836 -139.424684 0.549766 -8.564663 4.004923 -0.040492 -0.180710 -0.013727
-1.476254 50.077385 35.113424 171.879201 -35.841191 -6.053383 7.881237 24.150804 7.919228 1.065863 3.939094 0.826918 1.647017 6.407847 1.469926 6.060228 19.946928 5.302801 -2.626676 20.078749 1.619765 -5.414081 1.524391 3.917034 2.028408 -0.135322 -5.825751 17.379603 -14.889463 -5.765306 -124.348539 -42.323107 137.432349 -16.622403 -11.500633 16.474736 -16.264832 -0.196355 1.434767 -6.765588 -25.230955 1.619433 115.833336 -50.234921 -145.166058 40.543046 -11.751820 -3.216909 1.234303 -45.877559 9.583006 -65.054142 81.973226 -53.215100 -0.331906 -6.034296 -4.966394 -0.224911 0.988365 -0.118187 -11.646417 -49.149143 17.855475 -132.694599 87.968307 -139.595971 0.547209 -8.571145 4.007435 -0.040426 -0.181003 -0.017408
-1.471451 50.075118 35.108598 171.869873 -35.819367 -6.053822 7.853829 24.177124 7.947552 1.068599 3.947917 0.828627 1.631864 6.421203 1.482275 6.022132 19.987115 5.341646 -2.700262 19.942196 1.606144 -5.449885 1.346865 3.799461 2.106590 -0.208824 -5.888812 17.442275 -14.877692 -5.638931 -124.739782 -42.667583 137.446925 -16.560991 -11.573745 16.092473 -16.116571 -0.387551 1.417352 -7.016332 -25.261428 1.484354 116.409890 -50.747148 -145.124562 40.248409 -12.495257 -1.571065 1.210842 -45.899029 9.604672 -65.127123 81.970873 -53.292330 -0.319352 -6.037856 -4.976433 -0.223999 0.990814 -0.115405 -11.666860 -49.168806 17.886516 -132.652135 87.949726 -139.564582 0.554203 -8.579697 4.011455 -0.042125 -0.180155 -0.019408
-1.465825 50.073797 35.102258 171.868708 -35.804407 -6.061025 7.837198 24.186396 7.966506 1.012885 4.018551 0.893552 1.650892 6.396527 1.454891 5.993499 20.006193 5.365768 -2.759599 19.833069 1.575672 -5.507696 1.159126 3.705824 2.173805 -0.283346 -5.936395 17.493218 -14.848656 -5.525247 -125.192931 -43.033470 137.519818 -16.487554 -11.625546 15.783190 -15.981051 -0.563731 1.409464 -7.274903 -25.306392 1.350862 116.840374 -51.194396 -144.977960 39.956155 -13.210153 -0.192814 1.187086 -45.912533 9.622681 -65.236777 81.965698 -53.392774 -0.315071 -6.040093 -4.999168 -0.214533 0.993383 -0.105041 -11.699253 -49.179239 17.919733 -132.597824 87.933550 -139.522188 0.565666 -8.590498 4.011758 -0.045247 -0.177544 -0.019601
-1.459021 50.071768 35.097427 171.848643 -35.779471 -6.064273 7.836053 24.184037 7.991590 0.979723 4.062011 0.945241 1.651229 6.394837 1.452961 5.962294 20.022775 5.395226 -2.807588 19.729403 1.518526 -5.582509 0.965955 3.621409 2.241627 -0.373572 -5.994952 17.515430 -14.802992 -5.419809 -125.716794 -43.424527 137.664578 -16.392503 -11.662397 15.499950 -15.850104 -0.746026 1.387698 -7.530389 -25.360010 1.218616 117.199690 -51.603161 -144.786098 39.634678 -13.848995 1.001324 1.180918 -45.939234 9.647365 -65.285471 81.962995 -53.435642 -0.304235 -6.043073 -5.002641 -0.223138 0.998292 -0.108679 -11.739207 -49.199570 17.972329 -132.372038 87.904941 -139.308798 0.585688 -8.596095 4.014920 -0.042497 -0.180716 -0.027250
-1.454475 50.070987 35.090662 171.854632 -35.762625 -6.066882 7.788896 24.220733 8.027110 0.979522 4.064104 0.955849 1.639971 6.403817 1.465592 5.926645 20.036221 5.428221 -2.834258 19.650432 1.409226 -5.674332 0.752922 3.583917 2.310365 -0.472549 -6.061118 17.509816 -14.743854 -5.318126 -126.322598 -43.841921 137.891092 -16.268274 -11.684336 15.216479 -15.723453 -0.935082 1.350329 -7.776731 -25.406609 1.089797 117.624436 -52.026223 -144.656238 39.301169 -14.378695 2.068123 1.159176 -45.952806 9.653055 -65.433986 81.958172 -53.570498 -0.309959 -6.057808 -5.030480 -0.200393 1.000474 -0.099010 -11.753243 -49.215528 17.978857 -132.491422 87.894691 -139.429002 0.589183 -8.602095 4.017133 -0.042321 -0.182236 -0.029578
-1.448551 50.069323 35.086636 171.858734 -35.729648 -6.078561 7.757235 24.234734 8.078961 0.966461 4.064025 0.965836 1.627109 6.409554 1.478210 5.887384 20.045475 5.462017 -2.887731 19.536293 1.368510 -5.729555 0.567359 3.459236 2.372892 -0.535767 -6.172570 17.480717 -14.722930 -5.187335 -127.007728 -44.284548 138.205945 -16.109451 -11.687097 14.912210 -15.599015 -1.130366 1.298023 -8.009429 -25.431719 0.964914 118.219149 -52.512914 -144.669382 38.965785 -14.796214 3.028714 1.120521 -45.980591 9.683858 -65.488438 81.950334 -53.631102 -0.303092 -6.065623 -5.036156 -0.202089 1.006501 -0.100138 -11.799381 -49.243844 18.019965 -132.611878 87.889022 -139.560585 0.591363 -8.609504 4.015759 -0.042712 -0.181430 -0.030441
